<svg width="42" height="42" viewBox="0 0 42 42" fill="none" xmlns="http://www.w3.org/2000/svg">
<g clip-path="url(#clip0_404_10487)">
<path d="M21 42C32.598 42 42 32.598 42 21C42 9.40202 32.598 0 21 0C9.40202 0 0 9.40202 0 21C0 32.598 9.40202 42 21 42Z" fill="url(#paint0_linear_404_10487)"/>
<path fill-rule="evenodd" clip-rule="evenodd" d="M9.50627 20.7789C15.6282 18.1117 19.7104 16.3533 21.753 15.5037C27.5849 13.078 28.7967 12.6566 29.5866 12.6427C29.7603 12.6397 30.1487 12.6827 30.4004 12.8869C30.6128 13.0593 30.6713 13.2921 30.6992 13.4556C30.7272 13.619 30.762 13.9914 30.7343 14.2823C30.4183 17.6029 29.0508 25.6611 28.3551 29.3802C28.0608 30.9539 27.4811 31.4815 26.92 31.5332C25.7005 31.6454 24.7744 30.7273 23.5933 29.953C21.745 28.7414 20.7009 27.9872 18.9068 26.805C16.8334 25.4386 18.1775 24.6877 19.3591 23.4604C19.6683 23.1393 25.0415 18.2519 25.1455 17.8086C25.1585 17.7531 25.1706 17.5464 25.0478 17.4373C24.925 17.3282 24.7438 17.3655 24.613 17.3952C24.4276 17.4372 21.475 19.3888 15.7551 23.2499C14.917 23.8254 14.1579 24.1058 13.4777 24.0911C12.7279 24.0749 11.2856 23.6672 10.2133 23.3186C8.89822 22.8911 7.85298 22.6651 7.944 21.9391C7.99141 21.561 8.51216 21.1742 9.50627 20.7789Z" fill="white"/>
</g>
<defs>
<linearGradient id="paint0_linear_404_10487" x1="21" y1="0" x2="21" y2="41.6885" gradientUnits="userSpaceOnUse">
<stop stop-color="#2AABEE"/>
<stop offset="1" stop-color="#229ED9"/>
</linearGradient>
<clipPath id="clip0_404_10487">
<rect width="42" height="42" fill="white"/>
</clipPath>
</defs>
</svg>
